<?xml version="1.0" encoding="utf-8"?>
<!-- Generator: Adobe Illustrator 27.0.1, SVG Export Plug-In . SVG Version: 6.00 Build 0)  -->
<svg version="1.1" xmlns="http://www.w3.org/2000/svg" xmlns:xlink="http://www.w3.org/1999/xlink" x="0px" y="0px"
	 viewBox="0 0 800 800" style="enable-background:new 0 0 800 800;" xml:space="preserve">
<style type="text/css">
	.st0{display:none;}
	.st1{display:inline;fill:url(#SVGID_1_);}
	.st2{display:inline;fill:#FFFFFF;}
	.st3{font-family:'Montserrat-SemiBold';}
	.st4{font-size:518.9364px;}
	.st5{display:inline;opacity:0;fill:#FFFFFF;}
	.st6{font-family:'Montserrat-Bold';}
	.st7{font-size:949.6293px;}
	.st8{fill:url(#SVGID_00000132054024970499932660000006272510015872270257_);}
</style>
<g id="Layer_2" class="st0">
	<linearGradient id="SVGID_1_" gradientUnits="userSpaceOnUse" x1="0.1258" y1="400.1722" x2="800.1259" y2="400.1722">
		<stop  offset="0" style="stop-color:#0D1026"/>
		<stop  offset="1" style="stop-color:#054F91"/>
	</linearGradient>
	<circle class="st1" cx="400.13" cy="400.17" r="400"/>
</g>
<g id="Layer_1" class="st0">
	<text transform="matrix(0.8191 0.5736 -0.5736 0.8191 127.3334 256.4394)" class="st2 st3 st4">&lt;</text>
	<text transform="matrix(0.8191 0.5736 -0.5736 0.8191 255.8913 616.7413)" class="st2 st3 st4">&gt;</text>
	<text transform="matrix(0.8191 0.5736 -0.5736 0.8191 225.3473 477.8718)" class="st5 st3 st4">/</text>
</g>
<g id="Layer_3" class="st0">
	<text transform="matrix(1 0 0 1 97.0752 732.3684)" class="st2 st6 st7">S</text>
</g>
<g id="Layer_4">
	
		<linearGradient id="SVGID_00000013160079492637164450000016668250740920399255_" gradientUnits="userSpaceOnUse" x1="105.1465" y1="400" x2="694.8535" y2="400">
		<stop  offset="0" style="stop-color:#2C3E50"/>
		<stop  offset="1" style="stop-color:#3B97D3"/>
	</linearGradient>
	<path style="fill:url(#SVGID_00000013160079492637164450000016668250740920399255_);" d="M385.54,152.43
		c-21.06,0-38.34,5.19-51.92,15.45V3.65C352.22,1.23,371.74,0,392.21,0c86.04,0,155.39,20.59,208.07,61.75
		c52.66,41.17,80.84,98.47,84.56,171.91H479c-1.5-25.21-10.76-45.06-27.82-59.53C434.11,159.67,412.24,152.43,385.54,152.43z
		 M660.36,445.06c-23-29.66-50.26-52.3-81.78-67.87c-31.54-15.58-72.51-31.89-122.95-48.96c-50.45-16.31-87.53-31.52-111.27-45.62
		c-3.92-2.32-7.48-4.82-10.75-7.44v187.71c4.62,1.48,9.3,2.96,14.09,4.44c34.86,10.4,61.75,19.66,80.67,27.82
		c18.91,8.17,34.86,18.55,47.85,31.15c12.97,12.62,19.47,28.56,19.47,47.85c0,23-8.17,40.99-24.48,53.96
		c-16.32,12.99-38.58,19.47-66.76,19.47c-27.45,0-49.7-7.6-66.76-22.81c-17.07-15.2-27.08-37.28-30.04-66.2v-82.14V8.33V0h-202.5
		v558.55c1.48,51.18,15.75,94.96,42.84,131.29c27.07,36.35,63.23,63.8,108.48,82.34C301.7,790.74,352.88,800,410.01,800
		c58.59,0,109.41-10.74,152.44-32.27c43.01-21.51,75.83-50.43,98.47-86.79c22.62-36.34,33.93-76.77,33.93-121.28
		C694.85,512.94,683.35,474.74,660.36,445.06z"/>
</g>
</svg>
